<svg xmlns="http://www.w3.org/2000/svg" viewBox="0 0 640 520">
<defs><linearGradient id="bg" x1="0" y1="0" x2="1" y2="1"><stop stop-color="#fff0db"/><stop offset="1" stop-color="#fbcfe8"/></linearGradient></defs><rect width="640" height="520" rx="42" fill="url(#bg)"/><ellipse cx="320" cy="470" rx="220" ry="24" fill="#be185d" opacity=".12"/>
<g transform="translate(60 115)"><circle cx="90" cy="70" r="42" fill="#ffd8c2"/><path d="M50 72q5-83 82-36l-8 38q-28-26-74-2" fill="#7c3aed"/><path d="M42 114q50-30 100 0l25 190H18z" fill="#14b8a6"/><rect x="72" y="155" width="92" height="58" rx="8" fill="#fff"/><text x="82" y="180" font-size="12" fill="#047857">MENU</text><text x="82" y="197" font-size="10" fill="#64748b">450 kcal</text></g>
<g transform="translate(250 110)"><circle cx="80" cy="62" r="40" fill="#b87952"/><path d="M42 60q8-64 72-36l10 38q-35-18-82-2" fill="#1e293b"/><path d="M32 112q50-36 100 0l28 192H5z" fill="#f97316"/><path d="M15 152h130M5 135h-35M145 135h35" stroke="#334155" stroke-width="12" stroke-linecap="round"/><circle cx="-36" cy="135" r="17" fill="#94a3b8"/><circle cx="181" cy="135" r="17" fill="#94a3b8"/></g>
<g transform="translate(450 115)"><circle cx="70" cy="65" r="41" fill="#f0c5a7"/><path d="M29 66q4-75 83-42v58q-34-25-83-16" fill="#f59e0b"/><path d="M20 115q50-32 100 0l18 185H0z" fill="#6366f1"/><rect x="25" y="150" width="105" height="69" rx="10" fill="#fff" stroke="#10b981" stroke-width="4"/><text x="39" y="180" font-size="14" fill="#2563eb">PLAN</text><text x="39" y="202" font-size="18" font-weight="700" fill="#10b981">75%</text></g>
</svg>
